<svg id="Layer_1" data-name="Layer 1" xmlns="http://www.w3.org/2000/svg" viewBox="0 0 96.81 61.07"><defs><style>.cls-1{fill:#fff;}</style></defs><title>4Artboard 1</title><path class="cls-1" d="M10.84,39.44h-6l8.68-22.62H18l8.69,22.63H20.58l-1.12-3.28H12Zm4.9-15.21-2.26,7.26H18Z"/><rect class="cls-1" x="28.38" y="16.82" width="4.99" height="22.63"/><path class="cls-1" d="M41.26,45h-5V22.35H41v2a6.45,6.45,0,0,1,5.16-2.16,7.76,7.76,0,0,1,5.35,2,9,9,0,0,1,.25,13.11,7.88,7.88,0,0,1-5.7,2.32,5.71,5.71,0,0,1-4.81-2.16Zm4-9.8A4.26,4.26,0,0,0,49.48,31a4.2,4.2,0,0,0-4.43-4.2,4,4,0,0,0-4,4.13,4.13,4.13,0,0,0,4.14,4.3"/><path class="cls-1" d="M56.68,39.44V16.82h4.81v7.66A5.27,5.27,0,0,1,66.3,22c3.53,0,5.82,2.22,5.82,6.13V39.44h-5V30.18c0-2.38-.51-3.47-2.45-3.47s-3,1.18-3,3.47v9.26Z"/><path class="cls-1" d="M87.62,37.53a6.61,6.61,0,0,1-5.06,2,7.76,7.76,0,0,1-5.35-2A8.9,8.9,0,0,1,77,24.45a8,8,0,0,1,5.7-2.35,5.71,5.71,0,0,1,4.8,2.16v-1.9h5V39.44H87.62Zm-4-2.54a4,4,0,0,0,4-4.14,4.15,4.15,0,0,0-4.18-4.29A4.22,4.22,0,1,0,83.67,35"/></svg>