<svg id="Layer_1" data-name="Layer 1" xmlns="http://www.w3.org/2000/svg" viewBox="0 0 113.07 71.33"><defs><style>.cls-1{fill:#fafbfc;}</style></defs><title>4Artboard 1</title><path class="cls-1" d="M28.72,66.64a20.08,20.08,0,0,1-20-19.24H28a11.22,11.22,0,0,0,19.2,7.07A20.07,20.07,0,0,1,28.72,66.64m-.81-41.82H9.82L27.91,6.63V24.82Zm20.36,1.62L39.15,44.77,30,26.44ZM29.53,45.78V29.07l8.32,16.71Zm19.2,1.62a9.61,9.61,0,0,1-19.16,0Zm-40-21H27.91V45.78H8.68V26.44Zm40.9,19.34H40.45L50.3,26a.82.82,0,0,0,0-.79.8.8,0,0,0-.68-.38h-20V4.67a.81.81,0,0,0-1.38-.57L7.3,25.06l0,0-.07.09a.25.25,0,0,0,0,.07l0,.07a.29.29,0,0,0,0,.09.14.14,0,0,0,0,.06.68.68,0,0,0,0,.14v0h0v21h0a21.66,21.66,0,0,0,43.32,0,.8.8,0,0,0-.8-.81"/><path class="cls-1" d="M64.26,26.65h-1.4v6.63a.35.35,0,0,1-.35.35h-.46a.35.35,0,0,1-.35-.35V26.65H60.3a.35.35,0,0,1-.35-.34v-.48a.34.34,0,0,1,.35-.33h4a.34.34,0,0,1,.35.33v.48a.35.35,0,0,1-.35.34Z"/><path class="cls-1" d="M70.29,30.83h-.47a.35.35,0,0,1-.35-.34v-.82a.82.82,0,0,0-.81-.81h-.22a.82.82,0,0,0-.83.81v2.8h1.74a.35.35,0,0,1,.35.35v.46a.35.35,0,0,1-.35.35H65.87a.36.36,0,0,1-.36-.35v-.46a.36.36,0,0,1,.36-.35h.58v-2.8a2,2,0,0,1,2-2h.22a2,2,0,0,1,2,2v.82a.35.35,0,0,1-.35.34Z"/><path class="cls-1" d="M75.28,29.67a.82.82,0,0,0-.82-.81h-.25a.81.81,0,0,0-.81.81v.48h1.88v-.48Zm.81,1.63H73.4v.47a.83.83,0,0,0,.81.82h.25a.82.82,0,0,0,.78-.6.33.33,0,0,1,.42-.24l.46.1a.38.38,0,0,1,.25.43,2,2,0,0,1-1.91,1.48h-.25a2,2,0,0,1-2-2v-2.1a2,2,0,0,1,2-2h.25a2,2,0,0,1,2,2V31a.35.35,0,0,1-.34.34Z"/><path class="cls-1" d="M82.15,33.63h-.46a.35.35,0,0,1-.35-.35V29.67a.8.8,0,0,0-.81-.81H80.3a.82.82,0,0,0-.82.81v3.61a.34.34,0,0,1-.34.35h-.47a.36.36,0,0,1-.36-.35V28.16a.36.36,0,0,1,.36-.34h.47a.33.33,0,0,1,.25.1,1.86,1.86,0,0,1,.91-.22h.23a2,2,0,0,1,2,2v3.61a.34.34,0,0,1-.35.35Z"/><path class="cls-1" d="M86.75,33.76a2,2,0,0,1-2-2V29.21h-.6a.35.35,0,0,1-.34-.35V28.4a.35.35,0,0,1,.34-.35h.6V25.83a.34.34,0,0,1,.34-.33h.47a.35.35,0,0,1,.35.33v2.22h2a.35.35,0,0,1,.35.35v.46a.35.35,0,0,1-.35.35h-2v2.56a.81.81,0,1,0,1.62,0v-.23a.35.35,0,0,1,.35-.35h.46a.36.36,0,0,1,.36.35v.23a2,2,0,0,1-2,2Z"/><path class="cls-1" d="M63,47.06a.35.35,0,0,1-.34.27h-.83a.38.38,0,0,1-.35-.27L59.9,39.61a.34.34,0,0,1,.34-.41h.47a.36.36,0,0,1,.34.28l1.23,6.16,1.23-6.16a.36.36,0,0,1,.33-.28h.48a.33.33,0,0,1,.33.41L63,47.06Z"/><path class="cls-1" d="M69,40.83h-.93a.36.36,0,0,1-.35-.36v-.94a.34.34,0,0,1,.35-.33H69a.34.34,0,0,1,.34.33v.94a.35.35,0,0,1-.34.36Zm1.52,6.5h-4.2A.34.34,0,0,1,66,47v-.46a.35.35,0,0,1,.35-.35h1.75V42.69H66.8a.36.36,0,0,1-.35-.36v-.47a.35.35,0,0,1,.35-.34h2.09a.37.37,0,0,1,.36.34v4.31h1.28a.35.35,0,0,1,.34.35V47a.34.34,0,0,1-.34.35Z"/><path class="cls-1" d="M76.12,47.33h-.46a.35.35,0,0,1-.35-.35V43.37a.81.81,0,0,0-.81-.81h-.23a.83.83,0,0,0-.82.81V47a.33.33,0,0,1-.34.35h-.47a.35.35,0,0,1-.36-.35V41.86a.36.36,0,0,1,.36-.34h.47a.37.37,0,0,1,.25.1,2,2,0,0,1,.91-.21h.23a2,2,0,0,1,2,2V47a.34.34,0,0,1-.36.35Z"/><path class="cls-1" d="M81.31,43.37a.82.82,0,0,0-.82-.81h-.25a.82.82,0,0,0-.81.81v.48h1.88v-.48ZM82.12,45H79.43v.47a.83.83,0,0,0,.81.83h.25a.82.82,0,0,0,.78-.61.34.34,0,0,1,.42-.24l.46.1a.39.39,0,0,1,.25.44,2,2,0,0,1-1.91,1.47h-.25a2,2,0,0,1-2-2v-2.1a2,2,0,0,1,2-2h.25a2,2,0,0,1,2,2v1.29a.35.35,0,0,1-.34.34Z"/><path class="cls-1" d="M86.83,47.85c-.36,1.27-1.29,1.35-2.18,1.35h-.23a.36.36,0,0,1-.35-.36v-.47a.35.35,0,0,1,.35-.34h.23c.56,0,.86.06,1-.47.06-.15.12-.36.2-.61l-1.51-5a.34.34,0,0,1,.33-.46h.48a.38.38,0,0,1,.34.24l.89,3.52.93-3.51a.36.36,0,0,1,.33-.25h.47a.34.34,0,0,1,.33.45s-1.33,4.78-1.66,5.88Z"/><path class="cls-1" d="M93.37,44.47c-.53.26-.93.27-1.36.47a.73.73,0,0,0-.52.65v.18a.54.54,0,0,0,.58.53h.23a1,1,0,0,0,1.07-.83v-1Zm1.27,2.86H94.4a1.05,1.05,0,0,1-.75-.32,2.4,2.4,0,0,1-1.35.45h-.23a1.65,1.65,0,0,1-1.73-1.63v-.24c0-1.14.91-1.5,1.68-1.73.19,0,1.35-.23,1.35-.65s-.3-.65-.82-.65h-.12a.81.81,0,0,0-.81.81.35.35,0,0,1-.36.36h-.45a.35.35,0,0,1-.36-.36,2,2,0,0,1,2-2h.12a1.87,1.87,0,0,1,2,1.86v2.79a.13.13,0,0,0,.12.11.35.35,0,0,1,.35.35V47a.34.34,0,0,1-.35.35Z"/><path class="cls-1" d="M100.43,44.54H100a.35.35,0,0,1-.35-.35v-.82a.82.82,0,0,0-.81-.81h-.23a.81.81,0,0,0-.82.81v2.8H99.5a.35.35,0,0,1,.35.35V47a.34.34,0,0,1-.35.35H96a.35.35,0,0,1-.35-.35v-.46a.36.36,0,0,1,.35-.35h.59v-2.8a2,2,0,0,1,2-2h.23a2,2,0,0,1,2,2v.82a.35.35,0,0,1-.36.35Z"/><path class="cls-1" d="M105.32,43.37a.81.81,0,0,0-.81-.81h-.23a.81.81,0,0,0-.81.81v2.1a.82.82,0,0,0,.81.83h.23a.82.82,0,0,0,.81-.83v-2.1Zm.82,4h-.46a.3.3,0,0,1-.25-.11,1.94,1.94,0,0,1-.92.24h-.23a2,2,0,0,1-2-2v-2.1a2,2,0,0,1,2-2h.23a1.78,1.78,0,0,1,.81.17v-2a.35.35,0,0,1,.36-.33h.46a.34.34,0,0,1,.35.33V47a.34.34,0,0,1-.35.35Z"/></svg>